<svg width="107" height="100" viewBox="0 0 107 100" fill="none" xmlns="http://www.w3.org/2000/svg">
<path fill-rule="evenodd" clip-rule="evenodd" d="M57 100C84.6142 100 107 77.6142 107 50C107 22.3858 84.6142 0 57 0C29.3858 0 7 22.3858 7 50C7 77.6142 29.3858 100 57 100ZM57.5 83C76.0015 83 91 68.2254 91 50C91 31.7746 76.0015 17 57.5 17C38.9985 17 24 31.7746 24 50C24 68.2254 38.9985 83 57.5 83Z" fill="#FDE74C"/>
<circle cx="50" cy="50" r="50" fill="url(#paint0_linear)" fill-opacity="0.9"/>
<ellipse cx="50.5" cy="50" rx="30.5" ry="30" fill="white"/>
<defs>
<linearGradient id="paint0_linear" x1="14" y1="17.5" x2="88.5" y2="82.5" gradientUnits="userSpaceOnUse">
<stop stop-color="#2250F4"/>
<stop offset="1" stop-color="#0A1E8D" stop-opacity="0.5"/>
</linearGradient>
</defs>
</svg>
